<?xml version="1.0" encoding="UTF-8" standalone="no"?>
<!-- Created with Inkscape (http://www.inkscape.org/) -->

<svg
   xmlns:dc="http://purl.org/dc/elements/1.1/"
   xmlns:cc="http://creativecommons.org/ns#"
   xmlns:rdf="http://www.w3.org/1999/02/22-rdf-syntax-ns#"
   xmlns:svg="http://www.w3.org/2000/svg"
   xmlns="http://www.w3.org/2000/svg"
   xmlns:sodipodi="http://sodipodi.sourceforge.net/DTD/sodipodi-0.dtd"
   xmlns:inkscape="http://www.inkscape.org/namespaces/inkscape"
   width="744.09448"
   height="1052.3622"
   id="svg2"
   version="1.1"
   inkscape:version="0.48.4 r9939"
   sodipodi:docname="1_title_portrait.svg">
  <defs
     id="defs4" />
  <sodipodi:namedview
     id="base"
     pagecolor="#ffffff"
     bordercolor="#666666"
     borderopacity="1.0"
     inkscape:pageopacity="0.0"
     inkscape:pageshadow="2"
     inkscape:zoom="0.7"
     inkscape:cx="370.04686"
     inkscape:cy="524.76902"
     inkscape:document-units="mm"
     inkscape:current-layer="layer3"
     showgrid="false"
     inkscape:window-width="1680"
     inkscape:window-height="1000"
     inkscape:window-x="0"
     inkscape:window-y="0"
     inkscape:window-maximized="1"
     showguides="false"
     inkscape:guide-bbox="true"
     units="mm"
     inkscape:snap-grids="false"
     inkscape:snap-bbox="true"
     inkscape:snap-bbox-midpoints="true"
     inkscape:snap-global="true"
     inkscape:snap-to-guides="true">
    <sodipodi:guide
       orientation="0,1"
       position="-35.433071,350.7874"
       id="guide3069" />
    <sodipodi:guide
       orientation="0,1"
       position="-35.433071,701.5748"
       id="guide3071" />
    <inkscape:grid
       units="mm"
       empspacing="10"
       visible="true"
       enabled="true"
       snapvisiblegridlinesonly="true"
       type="xygrid"
       id="grid3073" />
    <sodipodi:guide
       orientation="0,1"
       position="-35.433071,526.1811"
       id="guide3079" />
    <sodipodi:guide
       orientation="0,1"
       position="-35.433071,175.3937"
       id="guide3081" />
    <sodipodi:guide
       orientation="0,1"
       position="-35.433071,876.9685"
       id="guide3083" />
    <sodipodi:guide
       orientation="0,1"
       position="-35.433071,789.27165"
       id="guide3085" />
    <sodipodi:guide
       orientation="0,1"
       position="-35.433071,613.87795"
       id="guide3087" />
    <sodipodi:guide
       orientation="0,1"
       position="-35.433071,87.69685"
       id="guide3089" />
  </sodipodi:namedview>
  <metadata
     id="metadata7">
    <rdf:RDF>
      <cc:Work
         rdf:about="">
        <dc:format>image/svg+xml</dc:format>
        <dc:type
           rdf:resource="http://purl.org/dc/dcmitype/StillImage" />
        <dc:title />
      </cc:Work>
    </rdf:RDF>
  </metadata>
  <g
     inkscape:groupmode="layer"
     id="layer3"
     inkscape:label="Deckblatt"
     transform="translate(0,-2.5390623e-6)"
     style="display:inline">
    <g
       id="g3055"
       transform="translate(93.781433,248.90889)">
      <text
         sodipodi:linespacing="125%"
         id="text3047"
         y="434.14883"
         x="279.31418"
         style="font-size:16px;font-style:normal;font-variant:normal;font-weight:normal;font-stretch:normal;text-align:center;line-height:125%;letter-spacing:2.13999987px;word-spacing:0px;text-anchor:middle;fill:#000000;fill-opacity:1;stroke:none;font-family:EB Garamond 12 All SC;-inkscape-font-specification:EB Garamond 12 All SC"
         xml:space="preserve"><tspan
           y="434.14883"
           x="280.38419"
           id="tspan3049"
           sodipodi:role="line">constantin</tspan></text>
      <text
         sodipodi:linespacing="125%"
         id="text3051"
         y="452.66589"
         x="277.94019"
         style="font-size:12px;font-style:normal;font-variant:normal;font-weight:normal;font-stretch:normal;text-align:center;line-height:125%;letter-spacing:5.19000053px;word-spacing:0px;text-anchor:middle;fill:#d40000;fill-opacity:1;stroke:none;font-family:EB Garamond;-inkscape-font-specification:EB Garamond"
         xml:space="preserve"><tspan
           style="font-size:20px;letter-spacing:5.19000053px;fill:#d40000"
           y="452.66589"
           x="280.53519"
           id="tspan3053"
           sodipodi:role="line">REINDL</tspan></text>
    </g>
    <text
       xml:space="preserve"
       style="font-size:12px;font-style:normal;font-variant:normal;font-weight:normal;font-stretch:normal;text-align:center;line-height:110.00000238%;letter-spacing:0px;word-spacing:0px;text-anchor:middle;fill:#000000;fill-opacity:1;stroke:none;font-family:EB Garamond;-inkscape-font-specification:EB Garamond"
       x="372.3208"
       y="412.09424"
       id="text3061"
       sodipodi:linespacing="110%"><tspan
         sodipodi:role="line"
         x="372.3208"
         y="412.09424"
         style="font-size:14px;font-style:normal;line-height:110.00000238%;-inkscape-font-specification:EB Garamond"
         id="tspan3013">Missa Pastorella ex D</tspan></text>
    <text
       xml:space="preserve"
       style="font-size:14px;font-style:normal;font-variant:normal;font-weight:normal;font-stretch:normal;text-align:center;line-height:125%;letter-spacing:1.84000015px;word-spacing:0px;text-anchor:middle;fill:#000000;fill-opacity:1;stroke:none;font-family:EB Garamond 12 All SC;-inkscape-font-specification:EB Garamond 12 All SC"
       x="372.06738"
       y="967.76636"
       id="text3099"
       sodipodi:linespacing="125%"><tspan
         sodipodi:role="line"
         x="372.9874"
         y="967.76636"
         id="tspan3023">full score</tspan></text>
    <text
       sodipodi:linespacing="110%"
       id="text3021"
       y="876.96851"
       x="371.86884"
       style="font-size:12px;font-style:normal;font-variant:normal;font-weight:normal;font-stretch:normal;text-align:center;line-height:110.00000238%;letter-spacing:0px;word-spacing:0px;text-anchor:middle;fill:#000000;fill-opacity:1;stroke:none;font-family:EB Garamond;-inkscape-font-specification:EB Garamond"
       xml:space="preserve"><tspan
         style="font-size:14px;font-style:normal;line-height:110.00000238%;-inkscape-font-specification:EB Garamond"
         y="876.96851"
         x="371.86884"
         sodipodi:role="line"
         id="tspan3097">S, A, T, B (solo), S, A, T, B (coro), 2 fl, 2 tr, 2 cor, timp, 2 vl, vla, b, org solo</tspan></text>
    <g
       transform="translate(166.73899,-85.102505)"
       style="font-size:72px;font-style:normal;font-variant:normal;font-weight:normal;font-stretch:normal;text-align:center;line-height:125%;letter-spacing:0px;word-spacing:0px;text-anchor:middle;fill:none;stroke:#808080;stroke-width:0.62362206;stroke-miterlimit:4;stroke-dasharray:none;font-family:EB Garamond;-inkscape-font-specification:EB Garamond"
       id="text3019">
      <path
         d="m -59.581437,360.21704 -1.224,-23.76 c -0.216,-4.104 0.576002,-5.54401 2.807999,-6.48 2.879998,-1.224 3.456001,-1.44001 3.456001,-2.16 0,-0.72 -0.288001,-1.224 -1.152001,-1.224 -2.303997,0 -7.272001,0.72 -9.143999,0.72 -1.871999,0 -2.880001,0 -3.672001,1.656 l -11.303999,23.472 c -1.367999,2.73599 -1.656001,1.58399 -2.232,0.072 l -8.424,-20.664 c -1.367999,-3.24 -2.592002,-4.536 -4.536,-4.536 -3.311997,0 -5.400003,-0.36 -7.992003,-0.36 -0.864,0 -2.448,-0.072 -2.448,1.008 0,1.15199 2.592,2.232 3.888,3.456 1.800001,1.65599 2.952002,3.024 2.304002,8.136 l -2.448002,19.152 c -0.504,3.59999 -1.728,6.48 -4.176,7.56 -1.656,0.71999 -3.96,1.08 -3.96,2.16 0,0.71999 1.584,1.152 2.376,1.224 0.504,0 3.24001,-0.432 6.624,-0.432 3.455999,0 6.624003,0.432 7.128002,0.432 0.792,-0.072 2.304,-0.50401 2.304,-1.224 0,-1.08 -2.376001,-1.44001 -3.959999,-2.16 -1.871999,-0.864 -2.376,-4.39201 -2.232,-6.336 l 1.224,-20.088 c 0.072,-1.8 0.720001,-2.808 1.8,-0.072 l 8.855999,22.68 c 1.511999,3.88799 2.088001,4.464 2.808001,4.464 0.647999,0 3.672,-6.19201 3.959999,-6.84 l 9.72,-22.32 c 0.504,-1.296 1.800001,-1.584 1.872,-0.216 l 0.936001,22.68 c 0.143999,2.66399 -0.936003,4.968 -3.384,6.048 -1.583999,0.71999 -3.96,1.08 -3.96,2.16 0,0.71999 1.584,1.152 2.376,1.224 0.503999,0 4.752003,-0.432 8.136,-0.432 3.455996,0 8.208,0.432 8.712,0.432 0.791999,-0.072 2.304,-0.50401 2.304,-1.224 0,-1.08 -2.376002,-1.44001 -3.96,-2.16 -2.447998,-1.08 -3.240001,-3.38401 -3.384,-6.048"
         style="fill:none;stroke:#808080;stroke-width:0.62362206;stroke-miterlimit:4;stroke-dasharray:none"
         id="path3025"
         inkscape:connector-curvature="0" />
      <path
         d="m -32.113437,326.95304 c -2.447998,0 -5.400003,0.36 -7.92,0.36 -2.591998,0 -5.184003,-0.36 -7.992001,-0.36 -1.079998,0 -2.519999,0.432 -2.519999,1.296 0,0.64799 0.504,1.008 1.152,1.224 4.103995,1.15199 5.904,1.224 5.904,5.328 l 0,26.28 c 0,2.66399 -0.936003,4.104 -3.384001,5.184 -1.583998,0.71999 -3.96,1.08 -3.96,2.16 0,0.71999 1.584001,1.152 2.376001,1.224 0.503999,0 4.752003,-0.432 8.135999,-0.432 3.455997,0 8.208001,0.432 8.712001,0.432 0.791999,-0.072 2.304,-0.50401 2.304,-1.224 0,-1.08 -2.376002,-1.44001 -3.96,-2.16 -2.447998,-1.08 -3.384,-2.52001 -3.384,-5.184 l 0,-26.28 c 0,-4.104 1.872004,-4.17601 5.975999,-5.328 0.648,-0.216 1.080001,-0.57601 1.080001,-1.224 0,-0.864 -1.440002,-1.296 -2.52,-1.296"
         style="fill:none;stroke:#808080;stroke-width:0.62362206;stroke-miterlimit:4;stroke-dasharray:none"
         id="path3027"
         inkscape:connector-curvature="0" />
      <path
         d="m -11.100687,326.23304 c -7.055993,0 -12.816001,5.328 -12.816001,12.096 0,3.52799 1.656003,6.12 4.248001,8.28 l 9.7199995,8.208 c 1.7999982,1.51199 2.88,3.312 2.88,5.76 0,3.59999 -2.6640036,6.912 -6.2639995,6.912 -4.175996,0 -6.984001,-2.08801 -7.776001,-4.68 -0.647999,-2.16 -1.296001,-3.384 -2.447999,-3.384 -0.72,0 -1.224001,0.864 -1.368,1.728 -0.216,0.93599 -0.504,3.96 -0.504,4.968 0,1.00799 0.648002,1.368 3.312,2.592 1.727998,0.79199 5.040002,1.584 7.559999,1.584 7.1999933,0 14.4720005,-5.25601 14.4720005,-12.312 0,-3.024 -1.2240022,-5.47201 -3.456,-7.344 l -10.1520005,-8.568 c -2.159997,-1.8 -3.672,-3.67201 -3.672,-6.048 0,-3.168 2.808004,-5.688 5.904001,-5.688 2.0879974,0 4.9680002,0.864 5.6879995,2.592 1.0799989,2.59199 2.0160009,3.312 2.88,3.312 1.0799989,0 1.44,-1.00801 1.44,-1.944 0,-1.368 -0.072,-2.95201 -0.288,-4.104 -0.1439999,-0.792 -0.7920014,-1.36801 -2.16,-2.088 -1.5839984,-0.792 -4.8960023,-1.872 -7.1999995,-1.872"
         style="fill:none;stroke:#808080;stroke-width:0.62362206;stroke-miterlimit:4;stroke-dasharray:none"
         id="path3029"
         inkscape:connector-curvature="0" />
      <path
         d="m 18.289937,326.23304 c -7.055992,0 -12.8159995,5.328 -12.8159995,12.096 0,3.52799 1.6560026,6.12 4.248,8.28 l 9.7200005,8.208 c 1.799998,1.51199 2.88,3.312 2.88,5.76 0,3.59999 -2.664004,6.912 -6.264,6.912 -4.175996,0 -6.9840013,-2.08801 -7.7760005,-4.68 -0.6479994,-2.16 -1.2960012,-3.384 -2.448,-3.384 -0.7199993,0 -1.2240001,0.864 -1.368,1.728 -0.2159998,0.93599 -0.504,3.96 -0.504,4.968 0,1.00799 0.6480027,1.368 3.312,2.592 1.7279983,0.79199 5.0400025,1.584 7.5599995,1.584 7.199993,0 14.472,-5.25601 14.472,-12.312 0,-3.024 -1.224002,-5.47201 -3.455999,-7.344 l -10.152,-8.568 c -2.159998,-1.8 -3.672,-3.67201 -3.672,-6.048 0,-3.168 2.808003,-5.688 5.903999,-5.688 2.087998,0 4.968001,0.864 5.688,2.592 1.079999,2.59199 2.016001,3.312 2.880001,3.312 1.079998,0 1.439999,-1.00801 1.439999,-1.944 0,-1.368 -0.072,-2.95201 -0.288,-4.104 -0.143999,-0.792 -0.792001,-1.36801 -2.16,-2.088 -1.583998,-0.792 -4.896002,-1.872 -7.2,-1.872"
         style="fill:none;stroke:#808080;stroke-width:0.62362206;stroke-miterlimit:4;stroke-dasharray:none"
         id="path3031"
         inkscape:connector-curvature="0" />
      <path
         d="m 48.112563,349.92104 5.04,-14.328 c 0.287999,-0.72 0.576,-0.936 0.792,-0.216 l 4.391999,13.464 c 0.72,2.30399 0.647999,2.592 -0.792,2.592 l -8.784,0 c -1.295998,0 -1.079999,-0.36001 -0.647999,-1.512 m 20.52,19.296 c 2.375997,0 4.968001,0.432 6.623999,0.432 1.367999,0 2.088,-0.36001 2.088,-1.152 0,-0.72 -0.648002,-1.44001 -2.88,-2.232 -3.527996,-1.296 -4.320002,-3.24001 -6.408,-9.072 l -9.504,-26.856 c -1.007998,-2.808 -1.440001,-5.184 -2.663999,-5.184 -0.432,0 -1.728002,2.016 -3.096,2.16 -0.792,0.072 -0.792002,1.008 -2.016001,4.104 l -11.016,30.456 c -1.079998,2.95199 -1.008002,3.312 -3.384,4.392 -1.583998,0.71999 -3.96,1.08 -3.96,2.16 0,0.79199 1.008002,1.224 2.376001,1.224 1.079998,0 2.736001,-0.432 4.536,-0.432 1.367998,0 4.536001,0.432 5.903999,0.432 1.799999,0 2.52,-0.43201 2.52,-1.224 0,-0.72 -0.792001,-1.51201 -2.663999,-2.016 -2.087998,-0.576 -2.016,-1.72801 -1.584001,-3.024 l 2.736,-7.848 c 0.288,-0.72 0.792001,-0.792 1.152,-0.792 l 12.024,0 c 0.576,0 0.936001,0.216 1.152,0.864 l 2.088,6.84 c 0.36,1.22399 0.503998,2.592 -2.088,3.816 -1.583998,0.71999 -3.888,1.08 -3.888,2.16 0,0.79199 1.368001,1.224 2.304001,1.224 2.159997,0 4.896004,-0.432 9.648,-0.432"
         style="fill:none;stroke:#808080;stroke-width:0.62362206;stroke-miterlimit:4;stroke-dasharray:none"
         id="path3033"
         inkscape:connector-curvature="0" />
      <path
         d="m 107.97831,331.05704 c 0,-1.08 1.00801,-1.656 3.6,-1.656 4.824,0 9.072,3.528 9.072,8.352 0,3.74399 -1.584,6.336 -4.392,8.712 -2.016,1.72799 -3.096,1.872 -3.096,2.592 0,0.86399 0.504,1.224 1.296,1.224 0.792,0 1.94401,-1e-5 4.608,-1.44 5.04,-2.736 8.784,-6.26401 8.784,-12.168 0,-7.272 -8.064,-10.44 -15.336,-10.44 -6.40799,0 -9.36,0.216 -15.695997,0.72 -1.511999,0.072 -2.520001,0.432 -2.520001,1.296 0,0.64799 0.504001,1.008 1.152,1.224 4.103996,1.15199 5.903998,1.224 5.903998,5.328 l 0,26.28 c 0,2.66399 -0.936,4.104 -3.383997,5.184 -1.583999,0.71999 -3.960001,1.08 -3.960001,2.16 0,0.71999 1.584001,1.152 2.376001,1.224 0.503999,0 4.824007,-0.432 7.919997,-0.432 3.456,0 8.208,0.432 8.712,0.432 0.792,-0.072 2.304,-0.50401 2.304,-1.224 0,-1.08 -2.376,-1.44001 -3.96,-2.16 -2.448,-1.08 -3.384,-2.52001 -3.384,-5.184 l 0,-30.024"
         style="fill:none;stroke:#808080;stroke-width:0.62362206;stroke-miterlimit:4;stroke-dasharray:none"
         id="path3035"
         inkscape:connector-curvature="0" />
      <path
         d="m 148.23756,349.92104 5.04,-14.328 c 0.288,-0.72 0.576,-0.936 0.792,-0.216 l 4.392,13.464 c 0.72,2.30399 0.648,2.592 -0.792,2.592 l -8.784,0 c -1.296,0 -1.08,-0.36001 -0.648,-1.512 m 20.52,19.296 c 2.376,0 4.968,0.432 6.624,0.432 1.368,0 2.088,-0.36001 2.088,-1.152 0,-0.72 -0.648,-1.44001 -2.88,-2.232 -3.52799,-1.296 -4.32,-3.24001 -6.408,-9.072 l -9.504,-26.856 c -1.008,-2.808 -1.44,-5.184 -2.664,-5.184 -0.432,0 -1.728,2.016 -3.096,2.16 -0.792,0.072 -0.792,1.008 -2.016,4.104 l -11.016,30.456 c -1.08,2.95199 -1.008,3.312 -3.384,4.392 -1.584,0.71999 -3.96,1.08 -3.96,2.16 0,0.79199 1.008,1.224 2.376,1.224 1.08,0 2.736,-0.432 4.536,-0.432 1.368,0 4.536,0.432 5.904,0.432 1.8,0 2.52,-0.43201 2.52,-1.224 0,-0.72 -0.792,-1.51201 -2.664,-2.016 -2.088,-0.576 -2.016,-1.72801 -1.584,-3.024 l 2.736,-7.848 c 0.288,-0.72 0.792,-0.792 1.152,-0.792 l 12.024,0 c 0.576,0 0.936,0.216 1.152,0.864 l 2.088,6.84 c 0.36,1.22399 0.504,2.592 -2.088,3.816 -1.584,0.71999 -3.888,1.08 -3.888,2.16 0,0.79199 1.368,1.224 2.304,1.224 2.16,0 4.89601,-0.432 9.648,-0.432"
         style="fill:none;stroke:#808080;stroke-width:0.62362206;stroke-miterlimit:4;stroke-dasharray:none"
         id="path3037"
         inkscape:connector-curvature="0" />
      <path
         d="m 194.49306,326.23304 c -7.05599,0 -12.816,5.328 -12.816,12.096 0,3.52799 1.65601,6.12 4.248,8.28 l 9.72,8.208 c 1.8,1.51199 2.88,3.312 2.88,5.76 0,3.59999 -2.664,6.912 -6.264,6.912 -4.17599,0 -6.984,-2.08801 -7.776,-4.68 -0.648,-2.16 -1.296,-3.384 -2.448,-3.384 -0.72,0 -1.224,0.864 -1.368,1.728 -0.216,0.93599 -0.504,3.96 -0.504,4.968 0,1.00799 0.64801,1.368 3.312,2.592 1.728,0.79199 5.04001,1.584 7.56,1.584 7.2,0 14.472,-5.25601 14.472,-12.312 0,-3.024 -1.224,-5.47201 -3.456,-7.344 l -10.152,-8.568 c -2.16,-1.8 -3.672,-3.67201 -3.672,-6.048 0,-3.168 2.80801,-5.688 5.904,-5.688 2.088,0 4.968,0.864 5.688,2.592 1.08,2.59199 2.016,3.312 2.88,3.312 1.08,0 1.44,-1.00801 1.44,-1.944 0,-1.368 -0.072,-2.95201 -0.288,-4.104 -0.144,-0.792 -0.792,-1.36801 -2.16,-2.088 -1.584,-0.792 -4.896,-1.872 -7.2,-1.872"
         style="fill:none;stroke:#808080;stroke-width:0.62362206;stroke-miterlimit:4;stroke-dasharray:none"
         id="path3039"
         inkscape:connector-curvature="0" />
      <path
         d="m 226.33169,333.14504 0,27.936 c 0,2.66399 -0.936,4.104 -3.384,5.184 -1.584,0.71999 -3.96,1.08 -3.96,2.16 0,0.71999 1.584,1.152 2.376,1.224 0.504,0 4.752,-0.432 8.136,-0.432 3.45599,0 8.208,0.432 8.712,0.432 0.792,-0.072 2.304,-0.50401 2.304,-1.224 0,-1.08 -2.376,-1.44001 -3.96,-2.16 -2.448,-1.08 -3.384,-2.52001 -3.384,-5.184 l 0,-27.936 c 0,-0.72 0.144,-2.232 0.864,-2.232 l 11.16,0 c 1.008,0 1.944,0.936 2.592,2.016 0.792,1.36799 1.872,3.24 2.592,3.24 0.864,0 1.008,-0.57601 1.008,-1.656 0,-0.792 -0.144,-3.24001 -0.144,-4.968 0,-1.584 0.288,-2.44801 0.288,-3.096 0,-0.576 -0.432,-1.296 -1.296,-1.296 -0.864,0 -1.224,0.576 -2.088,1.08 -1.296,0.71999 -2.44801,1.224 -5.04,1.224 l -25.128,0 c -3.96,0 -5.76,-2.16 -6.84,-2.16 -0.72,0 -1.224,0.864 -1.224,1.8 0,0.71999 0.144,2.088 0.144,3.24 0,2.30399 -0.36,2.88 -0.36,4.536 0,0.64799 0.36,1.656 1.296,1.656 1.008,0 1.512,-2.01601 2.304,-3.456 0.72,-1.296 1.224,-2.16 3.096,-2.16 l 8.784,0 c 0.72,0 1.152,0.792 1.152,2.232"
         style="fill:none;stroke:#808080;stroke-width:0.62362206;stroke-miterlimit:4;stroke-dasharray:none"
         id="path3041"
         inkscape:connector-curvature="0" />
      <path
         d="m 261.45306,345.74504 c 0,-7.92 5.76001,-15.984 13.68,-15.984 9.35999,0 14.328,10.224 14.328,19.584 0,8.56799 -3.74401,17.712 -12.312,17.712 -10.00799,0 -15.696,-11.30401 -15.696,-21.312 m 16.416,-19.296 c -14.25598,0 -24.48,8.20801 -24.48,21.816 0,13.10398 9.86402,22.104 22.752,22.104 12.31199,0 21.384,-10.87202 21.384,-23.184 0,-10.51199 -9.86401,-20.736 -19.656,-20.736"
         style="fill:none;stroke:#808080;stroke-width:0.62362206;stroke-miterlimit:4;stroke-dasharray:none"
         id="path3043"
         inkscape:connector-curvature="0" />
      <path
         d="m 331.28519,351.79304 c -0.936,-1.368 -1.8,-2.95201 -1.8,-3.6 0,-0.648 0.288,-0.57601 1.224,-1.296 3.38399,-2.448 5.688,-5.47201 5.688,-10.08 0,-7.272 -8.06401,-10.296 -15.336,-10.296 -6.408,0 -9.36001,0.216 -15.696,0.72 -1.512,0.072 -2.52,0.432 -2.52,1.296 0,0.64799 0.504,1.008 1.152,1.224 4.10399,1.15199 5.904,1.224 5.904,5.328 l 0,25.992 c 0,2.66399 -0.936,4.104 -3.384,5.184 -1.584,0.71999 -3.96,1.08 -3.96,2.16 0,0.71999 1.584,1.152 2.376,1.224 0.504,0 4.824,-0.432 7.92,-0.432 3.45599,0 8.208,0.432 8.712,0.432 0.792,-0.072 2.304,-0.50401 2.304,-1.224 0,-1.08 -2.376,-1.44001 -3.96,-2.16 -2.448,-1.08 -3.384,-2.52001 -3.384,-5.184 l 0,-8.64 c 0,-1.44 0.504,-1.944 2.016,-1.944 3.02399,0 5.112,0.936 5.976,2.376 3.74399,6.26399 7.128,10.512 11.376,14.976 2.016,2.15999 5.616,3.384 9.144,3.384 2.51999,0 5.04,-0.86401 5.04,-2.16 0,-0.576 -0.432,-1.152 -1.224,-1.224 -1.584,-0.144 -3.24,-0.50401 -4.104,-1.152 -5.4,-3.888 -9.93601,-9.64801 -13.464,-14.904 m -11.808,-3.888 c -2.088,0 -2.952,-0.57601 -2.952,-1.872 l 0,-13.896 c 0,-1.368 1.584,-2.448 3.6,-2.448 4.82399,0 9.072,3.384 9.072,8.208 0,3.74399 -1.58401,6.192 -4.392,8.568 -0.648,0.71999 -3.168,1.44 -5.328,1.44"
         style="fill:none;stroke:#808080;stroke-width:0.62362206;stroke-miterlimit:4;stroke-dasharray:none"
         id="path3045"
         inkscape:connector-curvature="0" />
      <path
         d="m 363.56931,343.87304 0,-12.096 c 0,-0.936 0.288,-1.512 2.232,-1.512 l 8.568,0 c 3.456,0 5.256,1.152 5.832,2.376 0.648,1.43999 1.728,2.736 2.592,2.736 0.864,0 1.152,-1.00801 1.152,-1.872 0,-0.792 -0.36,-4.75201 -0.648,-5.904 -0.144,-0.648 -0.72,-1.008 -1.872,-1.008 -1.296,0 -5.544,0.36 -8.568,0.36 l -20.664,0 c -1.512,0 -2.52,0.432 -2.52,1.296 0,0.64799 0.504,1.008 1.152,1.224 4.104,1.15199 5.904,1.224 5.904,5.328 l 0,26.28 c 0,2.66399 -0.936,4.104 -3.384,5.184 -1.584,0.71999 -3.96,1.08 -3.96,2.16 0,0.71999 1.584,1.152 2.376,1.224 0.504,0 4.75201,-0.36 8.136,-0.36 7.63199,0 20.66401,0.36 23.328,0.36 1.224,0 1.368,-0.28801 1.944,-1.368 0.576,-0.936 2.736,-6.26401 2.736,-8.28 0,-1.08 -0.288,-1.8 -1.008,-1.8 -0.648,0 -1.584,0.576 -1.944,1.368 -2.088,4.39199 -3.024,6.696 -8.568,6.696 l -10.08,0 c -2.088,0 -2.736,-0.93601 -2.736,-2.808 l 0,-12.096 c 0,-1.368 0.36,-1.728 1.728,-1.728 l 7.56,0 c 1.512,0 2.016,0.72 2.52,1.512 0.432,0.71999 1.368,2.736 2.304,2.736 0.72,0 0.936,-1.15201 0.936,-1.872 0,-0.792 -0.072,-3.02401 -0.072,-4.104 0,-1.08 0.288,-3.60001 0.288,-4.176 0,-0.864 -0.144,-1.44 -0.792,-1.44 -0.792,0 -1.44,1.08 -2.232,1.8 -1.296,1.22399 -2.088,2.016 -4.392,2.016 l -6.192,0 c -1.008,0 -1.656,-0.50401 -1.656,-2.232"
         style="fill:none;stroke:#808080;stroke-width:0.62362206;stroke-miterlimit:4;stroke-dasharray:none"
         id="path3047"
         inkscape:connector-curvature="0" />
      <path
         d="m 404.49119,363.38504 0,-28.584 c 0,-4.104 1.944,-4.17601 6.048,-5.328 0.648,-0.216 1.08,-0.57601 1.08,-1.224 0,-0.864 -1.44,-1.296 -2.52,-1.296 -2.448,0 -5.40001,0.36 -7.92,0.36 -2.592,0 -5.18401,-0.36 -7.992,-0.36 -1.584,0 -2.592,0.432 -2.592,1.296 0,0.64799 0.504,1.008 1.152,1.224 4.10399,1.15199 5.904,1.224 5.904,5.328 l 0,26.28 c 0,2.66399 -0.936,4.104 -3.384,5.184 -1.584,0.71999 -3.96,1.08 -3.96,2.16 0,0.71999 1.584,1.152 2.376,1.224 0.504,0 4.752,-0.36 8.136,-0.36 7.63199,0 21.24,0.36 23.904,0.36 1.224,0 1.44,-0.28801 2.016,-1.368 0.576,-0.936 2.376,-6.76801 2.376,-8.712 0,-2.016 -0.576,-3.384 -1.296,-3.384 -0.648,0 -1.584,0.576 -1.944,1.368 -2.088,4.39199 -3.02401,8.712 -8.568,8.712 l -9.648,0 c -2.232,0 -3.168,-0.79201 -3.168,-2.88"
         style="fill:none;stroke:#808080;stroke-width:0.62362206;stroke-miterlimit:4;stroke-dasharray:none"
         id="path3049"
         inkscape:connector-curvature="0" />
      <path
         d="m 447.10056,363.38504 0,-28.584 c 0,-4.104 1.94401,-4.17601 6.048,-5.328 0.648,-0.216 1.08,-0.57601 1.08,-1.224 0,-0.864 -1.44,-1.296 -2.52,-1.296 -2.448,0 -5.4,0.36 -7.92,0.36 -2.59199,0 -5.184,-0.36 -7.992,-0.36 -1.584,0 -2.592,0.432 -2.592,1.296 0,0.64799 0.504,1.008 1.152,1.224 4.104,1.15199 5.904,1.224 5.904,5.328 l 0,26.28 c 0,2.66399 -0.936,4.104 -3.384,5.184 -1.584,0.71999 -3.96,1.08 -3.96,2.16 0,0.71999 1.584,1.152 2.376,1.224 0.504,0 4.75201,-0.36 8.136,-0.36 7.63199,0 21.24001,0.36 23.904,0.36 1.224,0 1.44,-0.28801 2.016,-1.368 0.576,-0.936 2.376,-6.76801 2.376,-8.712 0,-2.016 -0.576,-3.384 -1.296,-3.384 -0.648,0 -1.584,0.576 -1.944,1.368 -2.088,4.39199 -3.024,8.712 -8.568,8.712 l -9.648,0 c -2.232,0 -3.168,-0.79201 -3.168,-2.88"
         style="fill:none;stroke:#808080;stroke-width:0.62362206;stroke-miterlimit:4;stroke-dasharray:none"
         id="path3051"
         inkscape:connector-curvature="0" />
      <path
         d="m 491.22194,349.92104 5.04,-14.328 c 0.288,-0.72 0.576,-0.936 0.792,-0.216 l 4.392,13.464 c 0.72,2.30399 0.648,2.592 -0.792,2.592 l -8.784,0 c -1.296,0 -1.08,-0.36001 -0.648,-1.512 m 20.52,19.296 c 2.376,0 4.968,0.432 6.624,0.432 1.368,0 2.088,-0.36001 2.088,-1.152 0,-0.72 -0.648,-1.44001 -2.88,-2.232 -3.528,-1.296 -4.32,-3.24001 -6.408,-9.072 l -9.504,-26.856 c -1.008,-2.808 -1.44,-5.184 -2.664,-5.184 -0.432,0 -1.728,2.016 -3.096,2.16 -0.792,0.072 -0.792,1.008 -2.016,4.104 l -11.016,30.456 c -1.08,2.95199 -1.008,3.312 -3.384,4.392 -1.584,0.71999 -3.96,1.08 -3.96,2.16 0,0.79199 1.008,1.224 2.376,1.224 1.08,0 2.736,-0.432 4.536,-0.432 1.368,0 4.536,0.432 5.904,0.432 1.8,0 2.52,-0.43201 2.52,-1.224 0,-0.72 -0.792,-1.51201 -2.664,-2.016 -2.088,-0.576 -2.016,-1.72801 -1.584,-3.024 l 2.736,-7.848 c 0.288,-0.72 0.792,-0.792 1.152,-0.792 l 12.024,0 c 0.576,0 0.936,0.216 1.152,0.864 l 2.088,6.84 c 0.36,1.22399 0.50399,2.592 -2.088,3.816 -1.584,0.71999 -3.888,1.08 -3.888,2.16 0,0.79199 1.368,1.224 2.304,1.224 2.16,0 4.896,-0.432 9.648,-0.432"
         style="fill:none;stroke:#808080;stroke-width:0.62362206;stroke-miterlimit:4;stroke-dasharray:none"
         id="path3053"
         inkscape:connector-curvature="0" />
    </g>
  </g>
</svg>
